PathFileType	4	(X/Y/Z)	E:\Qualisys_Data\Carbon_Farble_Plate\Data\Amateur_Runner\S14\T1\S14T1V25_c3d.trc
DataRate	CameraRate	NumFrames	NumMarkers	Units	OrigDataRate	OrigDataStartFrame	OrigNumFrames
200.000000	200.000000	4	39	mm	200.000000	0	303
Frame#	Time	LSHO			RSHO			LICST			RICST			LASIS			LHEEL			RASIS			LTROC			RTROC			SACR			LTH1			LSK4			LTH2			LTH3			RHM5			LSK2			LTH4			RTH1			LTOE			RTH2			RTH3			RTH4			LLEP			RLEP			LSK1			LSK3			RSK1			LHM5			RSK2			LFT1			RSK3			RSK4			LLME			RLME			RTOE			RHEEL			RFT1			RFT2			LFT2			
		X1	Y1	Z1	X2	Y2	Z2	X3	Y3	Z3	X4	Y4	Z4	X5	Y5	Z5	X6	Y6	Z6	X7	Y7	Z7	X8	Y8	Z8	X9	Y9	Z9	X10	Y10	Z10	X11	Y11	Z11	X12	Y12	Z12	X13	Y13	Z13	X14	Y14	Z14	X15	Y15	Z15	X16	Y16	Z16	X17	Y17	Z17	X18	Y18	Z18	X19	Y19	Z19	X20	Y20	Z20	X21	Y21	Z21	X22	Y22	Z22	X23	Y23	Z23	X24	Y24	Z24	X25	Y25	Z25	X26	Y26	Z26	X27	Y27	Z27	X28	Y28	Z28	X29	Y29	Z29	X30	Y30	Z30	X31	Y31	Z31	X32	Y32	Z32	X33	Y33	Z33	X34	Y34	Z34	X35	Y35	Z35	X36	Y36	Z36	X37	Y37	Z37	X38	Y38	Z38	X39	Y39	Z39	

1	0	-2843.456787109375	1489.308349609375	-503.8079833984375	-2904.86669921875	1493.362060546875	-218.6549377441406	-2887.452880859375	1033.497802734375	-488.7619934082031	-2878.1767578125	1043.840942382812	-216.3049011230469	-2858.8037109375	976.4188232421875	-464.4286804199219	-3484.015625	386.0174255371094	-371.9382019042969	-2853.767333984375	1000.087829589844	-235.8895874023438	-3028.55419921875	943.9788208007812	-500.3839416503906	-2987.426513671875	954.8916015625	-178.5980072021484	-3020.77978515625	1053.474853515625	-358.9527893066406	-3048.436279296875	716.06005859375	-506.9935913085938	-3344.417724609375	488.8541259765625	-448.4700317382812	-3113.115234375	747.65576171875	-474.3171997070312	-3079.90380859375	622.9928588867188	-486.5969848632812	-2635.8896484375	136.1375885009766	-195.3796539306641	-3268.598876953125	550.8285522460938	-466.4885559082031	-3148.396728515625	656.2517700195312	-459.3575439453125	-2765.042236328125	763.96533203125	-190.1463470458984	-3454.631103515625	131.8372192382812	-418.0313720703125	-2833.6826171875	732.5654296875	-181.1680145263672	-2720.150390625	677.3478393554688	-216.7278442382812	-2792.45361328125	640.6072387695312	-198.9505310058594	-3144.56591796875	577.1932983398438	-473.9006652832031	-2745.331298828125	585.1338500976562	-204.1498718261719	-3217.69287109375	486.9169616699219	-477.23095703125	-3298.093505859375	424.2557678222656	-465.010009765625	-2722.22802734375	462.0423278808594	-197.9005279541016	-3494.684814453125	198.0981140136719	-466.8999328613281	-2808.365234375	460.1449584960938	-192.2064056396484	-3498.311767578125	365.3375244140625	-342.0673217773438	-2727.771240234375	358.4847106933594	-207.7695770263672	-2810.21484375	364.3161926269531	-202.8284759521484	-3458.98291015625	346.9541931152344	-437.0277099609375	-2772.044921875	182.9143829345703	-220.3641815185547	-2566.63916015625	156.8026733398438	-259.0196533203125	-2829.0986328125	146.6758422851562	-272.9655151367188	-2809.0400390625	120.2235336303711	-303.2154846191406	-2822.040771484375	122.6104278564453	-246.0433502197266	-3507.2060546875	377.2580261230469	-388.5357360839844
2	0.005	-2823.11767578125	1490.050659179688	-503.2528076171875	-2885.1767578125	1493.581665039062	-218.6454162597656	-2866.2666015625	1033.629272460938	-488.3633117675781	-2858.537353515625	1042.94482421875	-216.9333343505859	-2837.777587890625	977.2701416015624	-464.4790649414062	-3467.076416015625	397.5417785644531	-370.9629821777344	-2833.388671875	1000.192321777344	-236.4658508300781	-3007.0283203125	943.9608764648438	-501.0430908203125	-2966.947509765625	953.5496215820312	-179.2279510498047	-3000.467041015625	1053.297729492188	-359.0164184570312	-3025.534423828125	715.031982421875	-507.0342102050781	-3324.703125	495.8565368652344	-448.3172302246094	-3091.045654296875	746.8206787109375	-475.411865234375	-3057.007568359375	622.08837890625	-486.4800109863281	-2599.97802734375	138.8828125	-196.1618804931641	-3246.58447265625	554.719970703125	-466.5883483886719	-3125.322998046875	655.0703125	-459.9837341308594	-2746.059326171875	761.2039184570312	-190.2870483398438	-3445.14794921875	142.8722229003906	-416.878173828125	-2817.068359375	730.6055908203125	-180.5474548339844	-2702.215087890625	674.1900634765625	-217.0407562255859	-2775.361572265625	638.2266235351562	-198.6400756835938	-3121.72412109375	576.7039794921875	-474.8458251953125	-2729.27490234375	582.7134399414062	-204.2510070800781	-3198.2275390625	488.9964294433594	-477.365478515625	-3280.61474609375	429.1656188964844	-465.03173828125	-2701.531982421875	460.51708984375	-198.4671173095703	-3481.822998046875	209.2362670898438	-466.2051391601562	-2787.215576171875	455.300048828125	-192.3993988037109	-3478.09912109375	378.8572387695312	-337.8971557617188	-2702.922119140625	357.205810546875	-207.9275512695312	-2784.24267578125	358.3889465332031	-202.4669036865234	-3443.177978515625	357.7417907714844	-435.902099609375	-2739.500732421875	178.8877868652344	-220.42333984375	-2532.075439453125	163.5216217041016	-259.2672119140625	-2794.1142578125	140.4492492675781	-272.5752258300781	-2772.691162109375	114.9275436401367	-303.3042297363281	-2785.12841796875	116.9096374511719	-245.7874755859375	-3496.149658203125	390.9563598632812	-391.8004760742188
3	0.01	-2801.934814453125	1490.726928710938	-502.0491333007812	-2865.353759765625	1493.45849609375	-217.7222595214844	-2845.949462890625	1034.355224609375	-488.3399047851562	-2837.442626953125	1042.194702148438	-216.5839538574219	-2817.18603515625	978.3350830078124	-465.0435791015625	-3449.7734375	409.0865173339844	-369.1106872558594	-2813.364013671875	999.1735229492188	-236.7589569091797	-2985.027587890625	942.8800659179688	-500.7528076171875	-2947.248291015625	952.4781494140624	-179.9478759765625	-2980.1796875	1052.776000976562	-359.1436767578125	-3002.32421875	713.6610717773438	-507.1112670898438	-3304.08447265625	501.3828735351562	-447.4397277832031	-3067.853271484375	745.209228515625	-475.6899719238281	-3033.415771484375	620.5386962890625	-486.5469970703125	-2565.6396484375	141.3546905517578	-195.9765625	-3224.096923828125	557.864501953125	-466.3520202636719	-3102.183837890625	653.467041015625	-460.8446350097656	-2726.80322265625	758.5003662109375	-190.4207458496094	-3434.3818359375	152.9560699462891	-416.5319519042969	-2797.26708984375	728.333251953125	-179.4473419189453	-2683.981689453125	670.8814086914062	-216.3194885253906	-2757.8095703125	635.1656494140625	-198.1002807617188	-3098.234130859375	575.4262084960938	-475.3226318359375	-2711.616943359375	580.08544921875	-204.7003631591797	-3177.6689453125	489.8229675292969	-477.6032104492188	-3262.99853515625	433.9508056640625	-463.8678283691406	-2681.462158203125	459.1058654785156	-198.2744445800781	-3468.75439453125	220.965576171875	-464.9891662597656	-2766.415771484375	450.6669006347656	-192.9625549316406	-3464.577392578125	388.8942565917969	-337.7565002441406	-2677.952392578125	355.5737915039062	-207.4867248535156	-2760.386474609375	354.2373657226562	-202.7754669189453	-3427.327392578125	368.3422241210938	-434.3958435058594	-2706.6826171875	176.4312744140625	-220.1030120849609	-2499.014892578125	170.0614471435547	-258.823486328125	-2759.447998046875	135.0209503173828	-272.0239868164062	-2736.437255859375	109.5841369628906	-302.205810546875	-2749.643310546875	111.8330230712891	-244.5578918457031	-3480.395751953125	404.7808837890625	-390.9315490722656
4	0.015	-2781.87060546875	1491.09814453125	-501.3562927246094	-2845.051513671875	1493.099609375	-216.9937133789062	-2825.04248046875	1034.533447265625	-487.8040771484375	-2818.16064453125	1041.162231445312	-216.8858947753906	-2795.88330078125	978.0142211914062	-464.2433471679688	-3433.3115234375	420.2132568359375	-368.5072937011719	-2793.24755859375	998.3093872070312	-236.6588287353516	-2963.322265625	941.8584594726562	-501.386962890625	-2927.421142578125	951.1836547851562	-179.9549865722656	-2959.822265625	1052.011962890625	-359.3215942382812	-2978.058349609375	711.6809692382812	-507.5698852539062	-3283.35888671875	507.3977355957031	-447.8084716796875	-3044.8173828125	743.3311157226562	-476.763916015625	-3008.840087890625	618.2931518554688	-486.7818298339844	-2532.232666015625	145.7243804931641	-195.2372741699219	-3201.277099609375	560.510498046875	-466.6511535644531	-3078.7265625	651.5110473632812	-461.53857421875	-2708.008056640625	754.771240234375	-190.2382354736328	-3423.5283203125	162.5013427734375	-413.8385925292969	-2778.756103515625	726.1768798828125	-178.2840423583984	-2667.673828125	666.8925170898438	-216.9572143554688	-2741.921630859375	631.9497680664062	-197.7735900878906	-3074.4150390625	573.85791015625	-475.9541015625	-2694.695068359375	576.514404296875	-204.4559631347656	-3157.8642578125	491.9423217773438	-477.0597534179688	-3244.4873046875	438.5000915527344	-463.8186950683594	-2660.488037109375	457.8384704589844	-199.0685119628906	-3455.800048828125	233.2295989990234	-463.2125854492188	-2745.51953125	446.7132873535156	-193.4907989501953	-3447.749267578125	400.7216491699219	-337.5456237792969	-2653.2236328125	354.6307678222656	-207.5304260253906	-2736.642822265625	349.9502258300781	-203.5985565185547	-3410.695556640625	378.9991760253906	-433.2484741210938	-2675.024658203125	173.1477203369141	-220.2454986572266	-2467.9638671875	176.9947967529297	-259.0525512695312	-2726.182861328125	130.3047027587891	-271.7461242675781	-2702.641845703125	106.3333435058594	-302.4236450195312	-2715.41552734375	107.234619140625	-245.4625244140625	-3461.787841796875	414.5673522949219	-389.4300842285156
